<?xml version="1.0" standalone="no"?>
<!DOCTYPE svg PUBLIC "-//W3C//DTD SVG 20010904//EN"
 "http://www.w3.org/TR/2001/REC-SVG-20010904/DTD/svg10.dtd">
<svg version="1.0" xmlns="http://www.w3.org/2000/svg"
 width="317.000000pt" height="74.000000pt" viewBox="0 0 317.000000 74.000000"
 preserveAspectRatio="xMidYMid meet">

<g transform="translate(0.000000,74.000000) scale(0.100000,-0.100000)"
fill="#000000" stroke="none">
<path d="M2724 470 c-32 -13 -64 -59 -64 -92 0 -45 48 -88 97 -88 41 1 63 13
81 47 28 51 4 113 -50 132 -36 13 -36 13 -64 1z m89 -42 c32 -39 20 -94 -27
-113 -51 -22 -105 11 -106 66 -1 68 88 100 133 47z"/>
<path d="M1220 380 c0 -53 4 -90 10 -90 6 0 10 16 10 35 0 48 31 48 62 0 13
-19 29 -35 37 -35 9 0 4 12 -13 35 l-27 34 21 21 c24 24 25 38 4 68 -12 17
-25 22 -60 22 l-44 0 0 -90z m81 61 c20 -16 22 -23 13 -38 -6 -10 -25 -19 -43
-21 -29 -3 -31 -1 -31 31 0 52 20 61 61 28z"/>
<path d="M1407 384 c-21 -47 -36 -89 -32 -92 4 -4 11 1 16 11 14 24 104 24
118 0 5 -10 12 -15 16 -12 6 7 -66 178 -75 179 -3 0 -22 -39 -43 -86z m63 6
c28 -54 26 -60 -20 -60 -22 0 -40 3 -40 7 0 9 34 93 37 93 2 0 12 -18 23 -40z"/>
<path d="M1560 380 l0 -90 55 0 c30 0 55 5 55 10 0 6 -20 10 -45 10 l-45 0 0
80 c0 47 -4 80 -10 80 -6 0 -10 -37 -10 -90z"/>
<path d="M1700 380 c0 -53 4 -90 10 -90 6 0 10 37 10 90 0 53 -4 90 -10 90 -6
0 -10 -37 -10 -90z"/>
<path d="M1760 380 l0 -90 55 0 c30 0 55 5 55 10 0 6 -20 10 -45 10 -43 0 -45
1 -45 30 0 28 2 30 40 30 22 0 40 5 40 10 0 6 -18 10 -41 10 -39 0 -40 1 -37
33 3 30 6 32 48 38 l45 6 -57 1 -58 2 0 -90z"/>
<path d="M1980 381 c0 -54 4 -91 10 -91 6 0 10 29 10 68 l0 67 65 -70 64 -70
1 93 c0 55 -4 92 -10 92 -6 0 -10 -29 -10 -67 l-1 -68 -64 69 -65 68 0 -91z"/>
<path d="M2170 380 l0 -90 55 0 c30 0 55 5 55 10 0 6 -20 10 -45 10 -43 0 -45
1 -45 30 0 28 3 30 35 30 19 0 35 5 35 10 0 6 -16 10 -35 10 -33 0 -35 2 -35
34 0 34 1 35 48 39 46 3 46 3 -10 5 l-58 2 0 -90z"/>
<path d="M2323 463 c27 -4 27 -4 27 -89 0 -109 18 -110 22 -2 l3 83 30 6 c19
4 4 7 -40 6 -38 0 -58 -2 -42 -4z"/>
<path d="M2440 468 c0 -2 13 -43 29 -93 28 -88 29 -89 40 -60 27 69 34 85 40
85 3 0 16 -26 27 -57 l21 -58 27 83 c28 90 30 102 17 102 -4 0 -16 -30 -26
-67 l-19 -68 -14 35 c-8 19 -19 46 -24 60 -10 24 -11 22 -33 -35 -14 -35 -25
-54 -28 -45 -3 8 -13 39 -22 68 -9 28 -21 52 -26 52 -5 0 -9 -1 -9 -2z"/>
<path d="M2880 380 c0 -53 4 -90 10 -90 6 0 10 16 10 35 0 28 4 35 19 35 11 0
32 -16 47 -35 29 -38 57 -50 30 -12 -27 37 -29 47 -12 66 38 42 5 91 -62 91
l-42 0 0 -90z m74 70 c47 -17 27 -70 -26 -70 -25 0 -28 3 -28 33 0 49 9 55 54
37z"/>
<path d="M3040 380 c0 -53 4 -90 10 -90 6 0 10 37 10 90 0 53 -4 90 -10 90 -6
0 -10 -37 -10 -90z"/>
<path d="M3102 428 c-18 -23 -32 -44 -32 -47 0 -13 78 -95 85 -89 3 3 -10 25
-31 47 l-37 42 32 39 c17 21 31 41 31 44 0 16 -19 2 -48 -36z"/>
</g>
</svg>
